<svg xmlns="http://www.w3.org/2000/svg" xmlns:xlink="http://www.w3.org/1999/xlink"   zoomAndPan="magnify"  viewBox="0 0 375 374.999991"  preserveAspectRatio="xMidYMid meet" version="1.0"><defs><clipPath id="1d41bca662"><path d="M 0 89.339844 L 375 89.339844 L 375 264 L 0 264 Z M 0 89.339844 " clip-rule="nonzero"/></clipPath></defs><g clip-path="url(#1d41bca662)"><path fill="#ff914d" d="M 270.285156 204.304688 C 271.335938 201.167969 272.214844 197.953125 272.890625 194.671875 L 328.660156 194.671875 L 339.054688 181.425781 L 274.628906 181.425781 C 274.714844 179.832031 274.761719 178.226562 274.761719 176.609375 C 274.761719 174.992188 274.714844 173.382812 274.628906 171.789062 L 346.613281 171.789062 L 357.011719 158.546875 L 272.878906 158.546875 C 272.191406 155.261719 271.324219 152.050781 270.273438 148.910156 L 364.570312 148.910156 L 374.964844 135.664062 L 264.574219 135.664062 C 249.902344 108.101562 220.890625 89.351562 187.480469 89.351562 C 154.085938 89.351562 125.058594 108.113281 110.390625 135.664062 L 0 135.664062 L 10.394531 148.910156 L 104.691406 148.910156 C 103.640625 152.050781 102.761719 155.261719 102.070312 158.546875 L 17.953125 158.546875 L 28.347656 171.789062 L 100.332031 171.789062 C 100.238281 173.382812 100.199219 174.992188 100.199219 176.609375 C 100.199219 178.226562 100.25 179.832031 100.332031 181.425781 L 35.90625 181.425781 L 46.304688 194.671875 L 102.070312 194.671875 C 102.761719 197.953125 103.628906 201.167969 104.679688 204.304688 L 53.859375 204.304688 L 64.257812 217.550781 L 110.378906 217.550781 C 125.046875 245.113281 154.0625 263.878906 187.46875 263.878906 C 220.867188 263.878906 249.890625 245.113281 264.5625 217.550781 L 310.683594 217.550781 L 321.078125 204.304688 L 270.261719 204.304688 Z M 111.804688 176.609375 C 111.804688 134.796875 145.695312 100.90625 187.507812 100.90625 C 229.316406 100.90625 263.207031 134.796875 263.207031 176.609375 C 263.207031 218.417969 229.316406 252.3125 187.507812 252.3125 C 145.695312 252.3125 111.804688 218.417969 111.804688 176.609375 Z M 111.804688 176.609375 " fill-opacity="1" fill-rule="evenodd"/></g><path fill="#7ed957" d="M 169.613281 173.613281 C 168.949219 171.875 168.632812 169.871094 168.683594 167.613281 C 168.71875 165.453125 169.140625 163.507812 169.949219 161.769531 C 170.746094 160.03125 171.871094 158.523438 173.308594 157.230469 C 174.742188 155.9375 176.46875 154.910156 178.5 154.152344 C 180.527344 153.390625 182.75 152.894531 185.164062 152.691406 L 185.25 148.210938 L 193.277344 148.355469 L 193.191406 152.992188 C 195.96875 153.449219 198.515625 154.1875 200.835938 155.175781 C 203.164062 156.167969 205.375 157.433594 207.453125 158.96875 L 202.117188 167.914062 C 200.59375 166.851562 199.035156 165.910156 197.453125 165.089844 C 195.875 164.269531 194.253906 163.628906 192.625 163.195312 L 192.421875 174.859375 C 198.265625 176.558594 202.476562 178.734375 205.085938 181.378906 C 207.695312 184.023438 208.960938 187.511719 208.875 191.832031 C 208.839844 193.996094 208.40625 195.9375 207.574219 197.6875 C 206.738281 199.429688 205.605469 200.9375 204.167969 202.230469 C 202.730469 203.519531 200.992188 204.558594 198.976562 205.34375 C 196.960938 206.140625 194.703125 206.636719 192.226562 206.851562 L 192.09375 214.496094 L 184.066406 214.351562 L 184.210938 206.550781 C 180.867188 206.082031 177.652344 205.1875 174.5625 203.871094 C 171.472656 202.554688 168.660156 200.902344 166.109375 198.898438 L 172.292969 190.203125 C 174.382812 191.832031 176.398438 193.199219 178.367188 194.296875 C 180.335938 195.382812 182.472656 196.179688 184.777344 196.6875 L 184.996094 184.40625 C 182.230469 183.585938 179.804688 182.679688 177.738281 181.691406 C 175.660156 180.703125 173.960938 179.554688 172.617188 178.238281 C 171.277344 176.933594 170.277344 175.402344 169.613281 173.664062 Z M 181 170.222656 C 181.699219 171.113281 183.097656 171.960938 185.199219 172.769531 L 185.382812 162.335938 C 183.523438 162.566406 182.15625 163.097656 181.300781 163.96875 C 180.429688 164.824219 179.996094 165.875 179.972656 167.105469 C 179.949219 168.289062 180.296875 169.328125 181 170.222656 Z M 192.226562 186.339844 L 192.035156 197.144531 C 195.691406 196.652344 197.550781 195.007812 197.601562 192.21875 C 197.625 190.878906 197.25 189.769531 196.5 188.886719 C 195.742188 187.992188 194.316406 187.148438 192.226562 186.339844 Z M 187.507812 237.929688 C 221.375 237.929688 248.828125 210.476562 248.828125 176.609375 C 248.828125 142.742188 221.375 115.285156 187.507812 115.285156 C 153.640625 115.285156 126.183594 142.742188 126.183594 176.609375 C 126.183594 210.476562 153.640625 237.929688 187.507812 237.929688 Z M 187.507812 237.929688 " fill-opacity="1" fill-rule="evenodd"/></svg>